<svg width="44" height="44" viewBox="0 0 44 44" fill="none" xmlns="http://www.w3.org/2000/svg">
<path d="M32.7141 27.4276C32.2963 26.8248 31.557 26.4804 30.7106 26.4804H26.3177C26.0284 26.4804 25.7606 26.362 25.5784 26.1467C25.3856 25.9314 25.3106 25.63 25.3534 25.3179L25.8998 21.7873C26.1356 20.7324 25.4391 19.5484 24.3891 19.1932C23.4141 18.8272 22.2677 19.3224 21.807 20.022L17.2856 26.771L17.157 26.9863V36.5016L17.3177 36.663L20.7141 39.3002C21.1641 39.7523 22.182 39.9999 22.8998 39.9999H27.0784C28.5141 39.9999 29.9606 38.9127 30.282 37.5887L32.9177 29.5266C33.1963 28.7623 33.1213 28.0196 32.7141 27.4276Z" fill="#2196F3"/>
<path opacity="0.4" d="M15.0999 23.4985H13.9964C12.3356 23.4985 11.6606 24.1444 11.6606 25.7374V36.5659C11.6606 38.159 12.3356 38.8048 13.9964 38.8048H15.0999C16.7606 38.8048 17.4356 38.159 17.4356 36.5659V25.7374C17.4356 24.1444 16.7606 23.4985 15.0999 23.4985Z" fill="#99D3FF"/>
<path d="M23.1153 4.62181L23.8717 6.14992C23.9736 6.36126 24.2472 6.56175 24.4778 6.6051L25.8457 6.8327C26.7201 6.979 26.9239 7.61842 26.2963 8.25785L25.2288 9.3362C25.0518 9.51502 24.9499 9.86724 25.0089 10.1219L25.3146 11.455C25.556 12.5062 24.9982 12.918 24.0809 12.3653L22.7988 11.5958C22.5682 11.455 22.182 11.455 21.9513 11.5958L20.6692 12.3653C19.752 12.9126 19.1941 12.5062 19.4355 11.455L19.7412 10.1219C19.8002 9.87266 19.6983 9.52044 19.5213 9.3362L18.4538 8.25785C17.8262 7.62384 18.0301 6.98442 18.9044 6.8327L20.2723 6.6051C20.503 6.56717 20.7765 6.36126 20.8784 6.14992L21.6348 4.62181C22.0371 3.79273 22.7023 3.79273 23.1153 4.62181Z" fill="#2196F3"/>
<path opacity="0.4" d="M12.401 10.0036L13.1573 11.5318C13.2592 11.7431 13.5328 11.9436 13.7635 11.9869L15.1314 12.2145C16.0057 12.3608 16.2096 13.0003 15.582 13.6397L14.5145 14.718C14.3374 14.8969 14.2355 15.2491 14.2945 15.5038L14.6003 16.8368C14.8417 17.888 14.2838 18.2999 13.3665 17.7472L12.0845 16.9777C11.8538 16.8368 11.4676 16.8368 11.2369 16.9777L9.95488 17.7472C9.0376 18.2945 8.47973 17.888 8.72112 16.8368L9.02688 15.5038C9.08589 15.2545 8.98397 14.9023 8.80695 14.718L7.73947 13.6397C7.11186 13.0057 7.3157 12.3663 8.19007 12.2145L9.55793 11.9869C9.7886 11.949 10.0622 11.7431 10.1641 11.5318L10.9204 10.0036C11.3228 9.17457 11.9879 9.17457 12.401 10.0036Z" fill="#99D3FF"/>
<path opacity="0.4" d="M33.8294 10.0036L34.5858 11.5318C34.6877 11.7431 34.9613 11.9436 35.1919 11.9869L36.5598 12.2145C37.4342 12.3608 37.638 13.0003 37.0104 13.6397L35.9429 14.718C35.7659 14.8969 35.664 15.2491 35.723 15.5038L36.0288 16.8368C36.2702 17.888 35.7123 18.2999 34.795 17.7472L33.5129 16.9777C33.2823 16.8368 32.8961 16.8368 32.6654 16.9777L31.3833 17.7472C30.4661 18.2945 29.9082 17.888 30.1496 16.8368L30.4553 15.5038C30.5144 15.2545 30.4124 14.9023 30.2354 14.718L29.1679 13.6397C28.5403 13.0057 28.7442 12.3663 29.6185 12.2145L30.9864 11.9869C31.2171 11.949 31.4906 11.7431 31.5926 11.5318L32.3489 10.0036C32.7512 9.17457 33.4164 9.17457 33.8294 10.0036Z" fill="#99D3FF"/>
</svg>
