<svg width="44" height="44" viewBox="0 0 44 44" fill="none" xmlns="http://www.w3.org/2000/svg">
<path opacity="0.4" d="M7.41559 32.3143L8.22812 33.9745C8.33892 34.2009 8.63438 34.4273 8.8806 34.465L10.3518 34.7166C11.2936 34.8801 11.5151 35.5718 10.838 36.2636L9.69312 37.4332C9.5023 37.6282 9.3915 38.0118 9.45305 38.2885L9.77931 39.7411C10.0378 40.8857 9.44076 41.3321 8.44972 40.7347L7.07088 39.8984C6.81851 39.7474 6.41226 39.7474 6.15989 39.8984L4.78105 40.7347C3.79001 41.3321 3.19293 40.8857 3.45146 39.7411L3.77772 38.2885C3.83927 38.0181 3.72847 37.6345 3.53765 37.4332L2.39274 36.2636C1.71563 35.5718 1.93722 34.8738 2.87901 34.7166L4.35017 34.465C4.59639 34.421 4.89185 34.2009 5.00265 33.9745L5.81518 32.3143C6.25222 31.4151 6.97855 31.4151 7.41559 32.3143Z" fill="#99D3FF"/>
<path d="M22.8001 32.3143L23.6126 33.9745C23.7234 34.2009 24.0189 34.4273 24.2651 34.465L25.7363 34.7166C26.6781 34.8801 26.8997 35.5718 26.2226 36.2636L25.0776 37.4332C24.8868 37.6282 24.776 38.0118 24.8376 38.2885L25.1638 39.7411C25.4224 40.8857 24.8253 41.3321 23.8342 40.7347L22.4554 39.8984C22.203 39.7474 21.7968 39.7474 21.5444 39.8984L20.1656 40.7347C19.1745 41.3321 18.5775 40.8857 18.836 39.7411L19.1622 38.2885C19.2238 38.0181 19.113 37.6345 18.9222 37.4332L17.7773 36.2636C17.1002 35.5718 17.3217 34.8738 18.2635 34.7166L19.7347 34.465C19.9809 34.421 20.2764 34.2009 20.3872 33.9745L21.1997 32.3143C21.6367 31.4151 22.3631 31.4151 22.8001 32.3143Z" fill="#2196F3"/>
<path opacity="0.4" d="M38.1849 32.3143L38.9974 33.9745C39.1082 34.2009 39.4037 34.4273 39.6499 34.465L41.1211 34.7166C42.0628 34.8801 42.2844 35.5718 41.6073 36.2636L40.4624 37.4332C40.2716 37.6282 40.1608 38.0118 40.2223 38.2885L40.5486 39.7411C40.8071 40.8857 40.21 41.3321 39.219 40.7347L37.8402 39.8984C37.5878 39.7474 37.1815 39.7474 36.9292 39.8984L35.5503 40.7347C34.5593 41.3321 33.9622 40.8857 34.2207 39.7411L34.547 38.2885C34.6086 38.0181 34.4978 37.6345 34.3069 37.4332L33.162 36.2636C32.4849 35.5718 32.7065 34.8738 33.6483 34.7166L35.1195 34.465C35.3657 34.421 35.6611 34.2009 35.7719 33.9745L36.5845 32.3143C37.0215 31.4151 37.7478 31.4151 38.1849 32.3143Z" fill="#99D3FF"/>
<path opacity="0.4" d="M22.0001 26.96C28.7974 26.96 34.3078 21.3725 34.3078 14.48C34.3078 7.58749 28.7974 2 22.0001 2C15.2027 2 9.69238 7.58749 9.69238 14.48C9.69238 21.3725 15.2027 26.96 22.0001 26.96Z" fill="#99D3FF"/>
<path d="M18.4307 14.4802V12.6331C18.4307 10.2495 20.0922 9.2885 22.123 10.4741L23.6984 11.3976L25.2737 12.3211C27.3045 13.5067 27.3045 15.4536 25.2737 16.6392L23.6984 17.5627L22.123 18.4863C20.0922 19.6719 18.4307 18.6984 18.4307 16.3272V14.4802Z" fill="#2196F3"/>
</svg>
