<svg width="44" height="44" viewBox="0 0 44 44" fill="none" xmlns="http://www.w3.org/2000/svg">
<path d="M33.6629 37.9997H10.3973C9.92268 37.9997 9.46747 37.8123 9.13185 37.4787C8.79622 37.1451 8.60767 36.6927 8.60767 36.221C8.60767 35.7493 8.79622 35.2969 9.13185 34.9633C9.46747 34.6298 9.92268 34.4424 10.3973 34.4424H33.6629C34.1375 34.4424 34.5927 34.6298 34.9284 34.9633C35.264 35.2969 35.4525 35.7493 35.4525 36.221C35.4525 36.6927 35.264 37.1451 34.9284 37.4787C34.5927 37.8123 34.1375 37.9997 33.6629 37.9997Z" fill="#2196F3"/>
<path d="M38.3698 12.6544C37.7923 12.2355 37.1018 11.9981 36.3873 11.9727C35.6728 11.9474 34.967 12.1352 34.3609 12.5121L30.0299 15.0022L25.0905 7.62088C24.7533 7.12198 24.2977 6.71318 23.7641 6.43051C23.2304 6.14785 22.6349 6 22.0302 6C21.4254 6 20.83 6.14785 20.2963 6.43051C19.7626 6.71318 19.3071 7.12198 18.9699 7.62088L13.9051 15.02L9.68153 12.5121C9.07981 12.0782 8.35707 11.8412 7.61366 11.8341C6.87024 11.827 6.14306 12.0502 5.53308 12.4726C4.9231 12.895 4.4606 13.4957 4.20981 14.1912C3.95901 14.8868 3.93237 15.6427 4.13358 16.354L6.76438 29.3736C6.91307 30.2056 7.35489 30.9578 8.01072 31.4955C8.66656 32.0332 9.49358 32.3214 10.3437 32.3084H33.6093C34.4594 32.3214 35.2864 32.0332 35.9422 31.4955C36.5981 30.9578 37.0399 30.2056 37.1886 29.3736L39.9268 16.354C40.0716 15.6532 40.0005 14.9254 39.7228 14.2654C39.445 13.6054 38.9735 13.044 38.3698 12.6544Z" fill="#FFCE29"/>
<path d="M22.0302 27.3284C24.007 27.3284 25.6096 25.7358 25.6096 23.7711C25.6096 21.8065 24.007 20.2139 22.0302 20.2139C20.0534 20.2139 18.4509 21.8065 18.4509 23.7711C18.4509 25.7358 20.0534 27.3284 22.0302 27.3284Z" fill="#FFA500"/>
</svg>
